<svg xmlns="http://www.w3.org/2000/svg" width="150" height="44" viewBox="0 0 150 44" fill="none">
    <g clip-path="url(#clip0_6704_5591)">
        <path
            d="M143.87 43.4436H5.63229C2.82948 43.4436 0.5625 41.1698 0.5625 38.3739V5.62631C0.5625 2.8235 2.83635 0.556519 5.63229 0.556519H143.877C146.68 0.556519 148.947 2.83037 148.947 5.62631V38.3739C148.947 41.1767 146.673 43.4436 143.87 43.4436Z"
            fill="black" />
        <path
            d="M143.87 44H5.63257C2.5275 44 0.00634766 41.4788 0.00634766 38.3738V5.62623C0.00634766 2.52116 2.5275 0 5.63257 0H143.877C146.982 0 149.503 2.52116 149.503 5.62623V38.3738C149.496 41.4788 146.975 44 143.87 44ZM5.63257 1.10601C3.14577 1.10601 1.11922 3.13255 1.11922 5.61936V38.3669C1.11922 40.8537 3.14577 42.8802 5.63257 42.8802H143.877C146.364 42.8802 148.39 40.8537 148.39 38.3669V5.62623C148.39 3.13255 146.364 1.11288 143.877 1.11288H5.63257V1.10601Z"
            fill="#A7A9AC" />
        <path
            d="M49.7768 12.5096L49.1516 14.5636H47.7915L50.1065 7.33679H51.7896L54.139 14.5636H52.7239L52.0712 12.5165H49.7768V12.5096ZM51.8445 11.5135L51.2744 9.73429C51.137 9.29464 51.0202 8.80002 50.9103 8.38098H50.8897C50.7798 8.80002 50.6767 9.30151 50.5462 9.73429L49.9897 11.5135H51.8445Z"
            fill="white" />
        <path
            d="M56.1105 9.33582L56.9555 11.9875C57.1066 12.4478 57.2096 12.8668 57.3127 13.2927H57.347C57.4432 12.8668 57.56 12.4546 57.7042 11.9875L58.5423 9.33582H59.9231L57.9309 14.5567H56.6326L54.6885 9.33582H56.1105Z"
            fill="white" />
        <path
            d="M65.1784 13.3065C65.1784 13.7805 65.199 14.2408 65.2609 14.5637H64.0724L63.9763 13.9866H63.9419C63.6328 14.3919 63.0832 14.6804 62.3962 14.6804C61.3452 14.6804 60.7544 13.9179 60.7544 13.1279C60.7544 11.8227 61.9222 11.1426 63.8526 11.1563V11.0739C63.8526 10.7304 63.7152 10.1602 62.7878 10.1602C62.2726 10.1602 61.7368 10.3182 61.3864 10.5449L61.1322 9.68622C61.5169 9.45265 62.197 9.22595 63.0214 9.22595C64.6976 9.22595 65.1784 10.2907 65.1784 11.438V13.3065ZM63.8938 12.0082C62.9595 11.9944 62.0734 12.1936 62.0734 12.9836C62.0734 13.4989 62.4031 13.7324 62.8222 13.7324C63.358 13.7324 63.7358 13.389 63.8595 13.0111C63.8938 12.9149 63.8938 12.8188 63.8938 12.7226V12.0082Z"
            fill="white" />
        <path
            d="M67.6994 8.58709C67.2597 8.58709 66.9712 8.26421 66.9712 7.87952C66.9712 7.47421 67.2735 7.1582 67.7131 7.1582C68.1665 7.1582 68.4413 7.46734 68.4551 7.87952C68.4551 8.26421 68.1665 8.58709 67.7131 8.58709H67.6994ZM67.0468 14.5637V9.34275H68.3657V14.5637H67.0468Z"
            fill="white" />
        <path d="M70.2617 6.93823H71.5807V14.5635H70.2617V6.93823Z" fill="white" />
        <path
            d="M77.5436 13.3065C77.5436 13.7805 77.5642 14.2408 77.626 14.5637H76.4376L76.3414 13.9866H76.3071C75.9979 14.3919 75.4484 14.6804 74.7614 14.6804C73.7103 14.6804 73.1196 13.9179 73.1196 13.1279C73.1196 11.8227 74.2874 11.1426 76.2178 11.1563V11.0739C76.2178 10.7304 76.0804 10.1602 75.1598 10.1602C74.6446 10.1602 74.1088 10.3182 73.7584 10.5449L73.5042 9.68622C73.8889 9.45265 74.569 9.22595 75.3934 9.22595C77.0627 9.22595 77.5505 10.2907 77.5505 11.438V13.3065H77.5436ZM76.2521 12.0082C75.3178 11.9944 74.4317 12.1936 74.4317 12.9836C74.4317 13.4989 74.7614 13.7324 75.1804 13.7324C75.7163 13.7324 76.0941 13.389 76.2178 13.0111C76.2521 12.9149 76.2521 12.8188 76.2521 12.7226V12.0082Z"
            fill="white" />
        <path
            d="M79.4056 6.93823H80.7245V10.057H80.7451C81.068 9.55556 81.6382 9.21895 82.4213 9.21895C83.6991 9.21895 84.6059 10.2837 84.599 11.8706C84.599 13.746 83.4105 14.6803 82.229 14.6803C81.5557 14.6803 80.9512 14.4193 80.5803 13.7804H80.5597L80.491 14.5635H79.3643C79.3849 14.2063 79.4056 13.6293 79.4056 13.1072V6.93823ZM80.7245 12.4065C80.7245 12.5164 80.7383 12.6194 80.7589 12.7156C80.8963 13.2514 81.3565 13.6361 81.9267 13.6361C82.7511 13.6361 83.2594 12.9835 83.2594 11.9187C83.2594 10.9982 82.8198 10.2425 81.9404 10.2425C81.4046 10.2425 80.91 10.6272 80.7726 11.2043C80.752 11.3004 80.7314 11.4172 80.7314 11.5478V12.4065H80.7245Z"
            fill="white" />
        <path d="M86.1514 6.93823H87.4703V14.5635H86.1514V6.93823Z" fill="white" />
        <path
            d="M90.3075 12.3172C90.3418 13.2583 91.0769 13.6705 91.915 13.6705C92.5264 13.6705 92.9523 13.5743 93.3645 13.4369L93.5568 14.3369C93.1034 14.5292 92.4851 14.6666 91.7364 14.6666C90.0396 14.6666 89.0435 13.6293 89.0435 12.0287C89.0435 10.5792 89.9228 9.21899 91.599 9.21899C93.2958 9.21899 93.8522 10.6135 93.8522 11.7608C93.8522 12.0081 93.8316 12.2004 93.811 12.3172H90.3075ZM92.6019 11.3967C92.6157 10.9158 92.3958 10.1189 91.5165 10.1189C90.699 10.1189 90.3556 10.8608 90.3075 11.3967H92.6019Z"
            fill="white" />
        <path
            d="M100.358 14.6804C98.8874 14.6804 97.7402 13.6705 97.7402 11.9875C97.7402 10.27 98.8668 9.21899 100.44 9.21899C101.993 9.21899 103.037 10.3113 103.037 11.8982C103.037 13.8148 101.684 14.6735 100.365 14.6735H100.358V14.6804ZM100.399 13.7255C101.148 13.7255 101.677 12.9973 101.677 11.9325C101.677 11.115 101.313 10.1739 100.413 10.1739C99.4782 10.1739 99.1004 11.0875 99.1004 11.9531C99.1004 12.9629 99.6018 13.7255 100.385 13.7255H100.399Z"
            fill="white" />
        <path
            d="M104.59 10.8953C104.59 10.2976 104.569 9.78926 104.548 9.34274H105.696L105.757 10.1259H105.792C106.025 9.72057 106.595 9.22595 107.468 9.22595C108.382 9.22595 109.323 9.81674 109.323 11.4655V14.5637H108.004V11.6097C108.004 10.8609 107.722 10.2907 107.008 10.2907C106.486 10.2907 106.121 10.6686 105.977 11.0601C105.936 11.1701 105.915 11.3281 105.915 11.4792V14.5637H104.596V10.8953H104.59Z"
            fill="white" />
        <path
            d="M115.395 7.99622V9.33579H116.653V10.325H115.395V12.6195C115.395 13.2652 115.567 13.5812 116.069 13.5812C116.302 13.5812 116.433 13.5675 116.584 13.5263L116.604 14.5224C116.412 14.5979 116.055 14.6598 115.65 14.6598C115.155 14.6598 114.763 14.5018 114.516 14.2338C114.228 13.9316 114.097 13.4507 114.097 12.7637V10.3182H113.355V9.32892H114.097V8.35344L115.395 7.99622Z"
            fill="white" />
        <path
            d="M118.116 6.93823H119.435V10.0502H119.455C119.613 9.80287 119.84 9.59678 120.108 9.45939C120.376 9.30826 120.685 9.22582 121.022 9.22582C121.908 9.22582 122.842 9.81661 122.842 11.4859V14.5635H121.523V11.6233C121.523 10.8745 121.241 10.2906 120.513 10.2906C119.998 10.2906 119.634 10.6341 119.483 11.0325C119.442 11.1493 119.428 11.2936 119.428 11.431V14.5635H118.109V6.93823H118.116Z"
            fill="white" />
        <path
            d="M125.652 12.3172C125.686 13.2583 126.421 13.6705 127.259 13.6705C127.871 13.6705 128.297 13.5743 128.709 13.4369L128.901 14.3369C128.448 14.5292 127.829 14.6666 127.081 14.6666C125.384 14.6666 124.388 13.6293 124.388 12.0287C124.388 10.5792 125.267 9.21899 126.943 9.21899C128.64 9.21899 129.196 10.6135 129.196 11.7608C129.196 12.0081 129.176 12.2004 129.155 12.3172H125.652ZM127.946 11.3967C127.96 10.9158 127.74 10.1189 126.861 10.1189C126.043 10.1189 125.7 10.8608 125.652 11.3967H127.946Z"
            fill="white" />
        <path
            d="M33.3654 21.5707C33.331 17.9916 36.2918 16.2536 36.4292 16.1712C34.753 13.7256 32.1494 13.389 31.2358 13.3615C29.0512 13.1348 26.9354 14.6667 25.8225 14.6667C24.689 14.6667 22.9716 13.3821 21.1305 13.4165C18.7537 13.4577 16.5348 14.8316 15.312 16.9612C12.7977 21.3165 14.6731 27.7122 17.0843 31.2363C18.2934 32.9606 19.7017 34.8841 21.5427 34.8154C23.3426 34.7398 24.0158 33.6681 26.1935 33.6681C28.3505 33.6681 28.9825 34.8154 30.8648 34.7742C32.8021 34.7398 34.018 33.043 35.179 31.305C36.5735 29.3265 37.1299 27.3824 37.1574 27.2863C37.1162 27.2794 33.4066 25.8574 33.3654 21.5707Z"
            fill="white" />
        <path
            d="M29.8135 11.0533C30.7821 9.83735 31.4485 8.18864 31.263 6.51245C29.8616 6.57428 28.103 7.48107 27.0931 8.66952C26.2001 9.7137 25.3963 11.4311 25.6024 13.0386C27.1893 13.1554 28.8037 12.2417 29.8135 11.0533Z"
            fill="white" />
        <path
            d="M59.4355 34.5406H56.9212L55.5473 30.2128H50.766L49.4539 34.5406H47.0083L51.7483 19.8121H54.6748L59.4355 34.5406ZM55.1351 28.3992L53.8917 24.5522C53.7612 24.1606 53.5138 23.2332 53.1498 21.7768H53.1085C52.9643 22.402 52.7307 23.3294 52.4078 24.5522L51.185 28.3992H55.1351Z"
            fill="white" />
        <path
            d="M71.6288 29.0997C71.6288 30.9064 71.1411 32.3353 70.1656 33.3795C69.2932 34.3138 68.2078 34.774 66.9094 34.774C65.508 34.774 64.505 34.2726 63.8936 33.2696H63.8524V38.8615H61.4892V27.4167C61.4892 26.2832 61.4618 25.1153 61.3999 23.92H63.4746L63.6051 25.6031H63.6532C64.4363 24.3322 65.6316 23.7002 67.2391 23.7002C68.4894 23.7002 69.5405 24.1948 70.3717 25.184C71.2098 26.1801 71.6288 27.4854 71.6288 29.0997ZM69.2245 29.189C69.2245 28.1586 68.9909 27.2999 68.5238 26.6335C68.0154 25.9328 67.3284 25.5825 66.4697 25.5825C65.8858 25.5825 65.3569 25.7748 64.8828 26.1595C64.4088 26.5511 64.0997 27.0526 63.9555 27.6777C63.8799 27.9662 63.8455 28.2067 63.8455 28.399V30.1714C63.8455 30.9408 64.0791 31.5934 64.5531 32.1224C65.0271 32.6582 65.6454 32.9192 66.401 32.9192C67.2872 32.9192 67.9811 32.5826 68.4757 31.8957C68.9771 31.2156 69.2245 30.3088 69.2245 29.189Z"
            fill="white" />
        <path
            d="M83.8431 29.0997C83.8431 30.9064 83.3554 32.3353 82.3799 33.3795C81.5075 34.3138 80.4221 34.774 79.1237 34.774C77.7292 34.774 76.7193 34.2726 76.1079 33.2696H76.0667V38.8615H73.7104V27.4167C73.7104 26.2832 73.6829 25.1153 73.6211 23.92H75.6957L75.8263 25.6031H75.8744C76.6575 24.3322 77.8528 23.7002 79.4534 23.7002C80.7037 23.7002 81.7479 24.1948 82.586 25.184C83.4241 26.1801 83.8431 27.4854 83.8431 29.0997ZM81.4388 29.189C81.4388 28.1586 81.2052 27.2999 80.7381 26.6335C80.2297 25.9328 79.5427 25.5825 78.684 25.5825C78.1001 25.5825 77.5712 25.7748 77.0971 26.1595C76.6231 26.5511 76.314 27.0526 76.1698 27.6777C76.0942 27.9662 76.0598 28.2067 76.0598 28.399V30.1714C76.0598 30.9408 76.2934 31.5934 76.7674 32.1224C77.2414 32.6582 77.8528 32.9192 78.6153 32.9192C79.5015 32.9192 80.1954 32.5826 80.69 31.8957C81.1915 31.2156 81.4388 30.3088 81.4388 29.189Z"
            fill="white" />
        <path
            d="M97.4998 30.4119C97.4998 31.6622 97.0671 32.6857 96.1877 33.4689C95.226 34.3276 93.8933 34.7604 92.1759 34.7604C90.589 34.7604 89.3181 34.4581 88.3564 33.8467L88.9059 31.882C89.9432 32.5071 91.0767 32.8231 92.3201 32.8231C93.2063 32.8231 93.9002 32.6239 94.3948 32.2255C94.8894 31.8202 95.1367 31.2843 95.1367 30.618C95.1367 30.0203 94.9306 29.5188 94.5253 29.1067C94.12 28.6945 93.44 28.3166 92.492 27.9663C89.9159 27.0045 88.6243 25.5963 88.6243 23.7415C88.6243 22.5324 89.0777 21.5363 89.9776 20.7669C90.8775 19.9907 92.0797 19.606 93.5841 19.606C94.9237 19.606 96.0366 19.8395 96.9228 20.3067L96.332 22.2302C95.5008 21.7768 94.5596 21.5501 93.5086 21.5501C92.6774 21.5501 92.0316 21.7562 91.5645 22.1615C91.1729 22.5256 90.9737 22.9721 90.9737 23.4942C90.9737 24.0781 91.2004 24.559 91.6469 24.9368C92.0385 25.2871 92.7529 25.665 93.7902 26.0771C95.0543 26.5855 95.9886 27.1832 96.5863 27.8701C97.1976 28.5433 97.4998 29.3952 97.4998 30.4119Z"
            fill="white" />
        <path
            d="M105.297 25.6924H102.7V30.8515C102.7 32.1636 103.161 32.8163 104.081 32.8163C104.5 32.8163 104.85 32.7819 105.125 32.7063L105.187 34.4993C104.727 34.6711 104.109 34.7604 103.353 34.7604C102.419 34.7604 101.69 34.4787 101.168 33.9085C100.646 33.3383 100.378 32.3835 100.378 31.0439V25.6924H98.8257V23.9201H100.378V21.976L102.693 21.2753V23.9201H105.29V25.6924H105.297Z"
            fill="white" />
        <path
            d="M117.03 29.1479C117.03 30.7829 116.563 32.1225 115.636 33.1666C114.66 34.2452 113.362 34.781 111.748 34.781C110.188 34.781 108.945 34.2658 108.024 33.2285C107.097 32.198 106.637 30.8928 106.637 29.3196C106.637 27.6709 107.111 26.3245 108.066 25.2803C109.02 24.2292 110.305 23.7072 111.919 23.7072C113.479 23.7072 114.729 24.2224 115.677 25.2597C116.584 26.2627 117.03 27.5541 117.03 29.1479ZM114.585 29.2235C114.585 28.248 114.372 27.403 113.953 26.7023C113.458 25.8573 112.751 25.4314 111.837 25.4314C110.889 25.4314 110.168 25.8573 109.673 26.7023C109.247 27.403 109.041 28.2549 109.041 29.2647C109.041 30.2402 109.247 31.0851 109.673 31.7858C110.181 32.6308 110.896 33.0567 111.816 33.0567C112.716 33.0567 113.424 32.6239 113.932 31.7652C114.365 31.0508 114.585 30.199 114.585 29.2235Z"
            fill="white" />
        <path
            d="M124.697 25.9947C124.463 25.9534 124.216 25.9328 123.955 25.9328C123.124 25.9328 122.485 26.2488 122.032 26.874C121.64 27.4304 121.441 28.1242 121.441 28.9692V34.5405H119.084L119.105 27.2655C119.105 26.0427 119.078 24.9299 119.016 23.92H121.07L121.159 25.9534H121.221C121.468 25.2527 121.867 24.6894 122.402 24.2704C122.925 23.8925 123.495 23.7002 124.106 23.7002C124.326 23.7002 124.518 23.7139 124.697 23.7414V25.9947Z"
            fill="white" />
        <path
            d="M135.249 28.7288C135.249 29.1548 135.221 29.5051 135.166 29.8005H128.09C128.118 30.8516 128.461 31.6484 129.114 32.2049C129.712 32.6995 130.481 32.9468 131.429 32.9468C132.473 32.9468 133.428 32.7819 134.294 32.4453L134.665 34.0871C133.662 34.5268 132.473 34.7466 131.099 34.7466C129.458 34.7466 128.159 34.2589 127.225 33.2903C126.291 32.3217 125.817 31.0233 125.817 29.3883C125.817 27.7877 126.256 26.455 127.129 25.3902C128.042 24.2567 129.286 23.6865 130.838 23.6865C132.37 23.6865 133.531 24.2567 134.314 25.3902C134.94 26.2901 135.249 27.403 135.249 28.7288ZM133.002 28.1174C133.016 27.4167 132.865 26.8122 132.542 26.3039C132.137 25.6512 131.505 25.3215 130.66 25.3215C129.89 25.3215 129.265 25.6444 128.784 26.2832C128.393 26.7916 128.159 27.403 128.09 28.1174H133.002Z"
            fill="white" />
    </g>
    <defs>
        <clipPath id="clip0_6704_5591">
            <rect width="150" height="44" fill="white" />
        </clipPath>
    </defs>
</svg>