<svg xmlns="http://www.w3.org/2000/svg" width="150" height="44" viewBox="0 0 150 44" fill="none">
    <g clip-path="url(#clip0_6704_5619)">
        <path
            d="M144.367 43.4436H6.12936C3.32655 43.4436 1.05957 41.1698 1.05957 38.3738V5.62631C1.05957 2.8235 3.33342 0.556519 6.12936 0.556519H144.374C147.177 0.556519 149.444 2.83037 149.444 5.62631V38.3738C149.444 41.1767 147.17 43.4436 144.367 43.4436Z"
            fill="black" />
        <path
            d="M144.367 44H6.12916C3.02409 44 0.50293 41.4788 0.50293 38.3738V5.62623C0.50293 2.52116 3.02409 0 6.12916 0H144.374C147.479 0 150 2.52116 150 5.62623V38.3738C149.993 41.4788 147.472 44 144.367 44ZM6.12916 1.10601C3.64236 1.10601 1.61581 3.13255 1.61581 5.62623V38.3738C1.61581 40.8606 3.64236 42.8871 6.12916 42.8871H144.374C146.861 42.8871 148.887 40.8606 148.887 38.3738V5.62623C148.887 3.13255 146.861 1.10601 144.374 1.10601H6.12916Z"
            fill="#A7A9AC" />
        <path
            d="M75.9178 24.0641C73.3211 24.0641 71.1984 26.0426 71.1984 28.7629C71.1984 31.4696 73.3143 33.4618 75.9178 33.4618C78.5146 33.4618 80.6373 31.4696 80.6373 28.7629C80.6304 26.0357 78.5146 24.0641 75.9178 24.0641ZM75.9178 31.607C74.4958 31.607 73.2662 30.4323 73.2662 28.7561C73.2662 27.0661 74.4958 25.9052 75.9178 25.9052C77.3399 25.9052 78.5695 27.0593 78.5695 28.7561C78.5695 30.4323 77.3399 31.607 75.9178 31.607ZM65.6271 24.0641C63.0304 24.0641 60.9077 26.0426 60.9077 28.7629C60.9077 31.4696 63.0235 33.4618 65.6271 33.4618C68.2239 33.4618 70.3466 31.4696 70.3466 28.7629C70.3397 26.0357 68.2239 24.0641 65.6271 24.0641ZM65.6271 31.607C64.2051 31.607 62.9755 30.4323 62.9755 28.7561C62.9755 27.0661 64.2051 25.9052 65.6271 25.9052C67.0491 25.9052 68.2788 27.0593 68.2788 28.7561C68.2788 30.4323 67.0491 31.607 65.6271 31.607ZM53.3854 25.5067V27.4989H58.153C58.0087 28.6187 57.6377 29.4362 57.0676 30.0063C56.3737 30.7002 55.2883 31.4627 53.3854 31.4627C50.4452 31.4627 48.1508 29.0927 48.1508 26.1594C48.1508 23.2191 50.4452 20.856 53.3854 20.856C54.9723 20.856 56.1264 21.4811 56.9783 22.278L58.3865 20.8697C57.1912 19.7294 55.6112 18.8569 53.3854 18.8569C49.3598 18.8569 45.98 22.1338 45.98 26.1525C45.98 30.1781 49.3598 33.448 53.3854 33.448C55.5562 33.448 57.1981 32.7336 58.4758 31.4009C59.7948 30.0819 60.2001 28.234 60.2001 26.7364C60.2001 26.2761 60.1658 25.8433 60.0902 25.493H53.3854V25.5067ZM103.444 27.0524C103.053 26.0014 101.858 24.0641 99.4189 24.0641C97.0007 24.0641 94.9879 25.967 94.9879 28.7629C94.9879 31.4009 96.9801 33.4618 99.6524 33.4618C101.809 33.4618 103.053 32.1428 103.568 31.3803L101.967 30.3155C101.432 31.0986 100.703 31.6138 99.6524 31.6138C98.6014 31.6138 97.8526 31.133 97.3717 30.1918L103.657 27.5951L103.444 27.0524ZM97.0351 28.6187C96.9801 26.8051 98.4434 25.8777 99.4944 25.8777C100.312 25.8777 101.006 26.2899 101.239 26.8738L97.0351 28.6187ZM91.9241 33.1733H93.9918V19.3584H91.9241V33.1733ZM88.5442 25.1152H88.4755C88.0153 24.5656 87.1222 24.0641 86.0025 24.0641C83.653 24.0641 81.496 26.1319 81.496 28.7836C81.496 31.4146 83.653 33.4618 86.0025 33.4618C87.1222 33.4618 88.0153 32.9603 88.4755 32.397H88.5442V33.0702C88.5442 34.87 87.5825 35.8318 86.0368 35.8318C84.7728 35.8318 83.9897 34.925 83.6668 34.1556L81.8669 34.9044C82.3822 36.1478 83.7561 37.6797 86.0299 37.6797C88.4481 37.6797 90.4952 36.2577 90.4952 32.7817V24.3458H88.5374V25.1152H88.5442ZM86.1811 31.607C84.7591 31.607 83.5637 30.4117 83.5637 28.7767C83.5637 27.1211 84.7591 25.912 86.1811 25.912C87.5893 25.912 88.6885 27.1211 88.6885 28.7767C88.6885 30.4185 87.5825 31.607 86.1811 31.607ZM113.117 19.3653H108.178V33.1801H110.239V27.9455H113.117C115.404 27.9455 117.651 26.2899 117.651 23.6588C117.651 21.0277 115.404 19.3653 113.117 19.3653ZM113.172 26.022H110.239V21.2888H113.172C114.711 21.2888 115.59 22.5665 115.59 23.6588C115.583 24.7236 114.711 26.022 113.172 26.022ZM125.908 24.0366C124.417 24.0366 122.872 24.6961 122.233 26.1525L124.06 26.915C124.452 26.1525 125.18 25.9052 125.943 25.9052C127.007 25.9052 128.093 26.5441 128.113 27.6844V27.8287C127.742 27.6157 126.939 27.2928 125.963 27.2928C123.992 27.2928 121.986 28.3782 121.986 30.4048C121.986 32.2527 123.6 33.4412 125.414 33.4412C126.801 33.4412 127.564 32.816 128.045 32.0878H128.113V33.1526H130.105V27.8562C130.105 25.4037 128.271 24.0366 125.908 24.0366ZM125.661 31.607C124.988 31.607 124.046 31.2704 124.046 30.4323C124.046 29.3675 125.221 28.9553 126.231 28.9553C127.138 28.9553 127.564 29.1476 128.113 29.4156C127.955 30.7002 126.849 31.607 125.661 31.607ZM137.353 24.3389L134.99 30.3292H134.921L132.469 24.3389H130.25L133.925 32.7061L131.83 37.3637H133.98L139.647 24.3389H137.353ZM118.784 33.1733H120.845V19.3584H118.784V33.1733Z"
            fill="white" />
        <path
            d="M12.1606 8.36719C11.8377 8.7038 11.6523 9.23276 11.6523 9.91973V34.3344C11.6523 35.0214 11.8446 35.5435 12.1606 35.8869L12.2431 35.9694L25.9205 22.2919V22.1271V21.9691L12.2431 8.29163L12.1606 8.36719Z"
            fill="#5BC9F4" />
        <path
            d="M30.4751 26.8465L25.9136 22.2851V22.1202V21.9622L30.4751 17.4008L30.5781 17.4626L35.9776 20.5333C37.5233 21.4126 37.5233 22.8415 35.9776 23.7208L30.5781 26.7915L30.4751 26.8465Z"
            fill="url(#paint0_linear_6704_5619)" />
        <path
            d="M30.5849 26.7914L25.9204 22.127L12.1606 35.8868C12.6689 36.4227 13.507 36.4913 14.455 35.9555L30.5849 26.7914Z"
            fill="url(#paint1_linear_6704_5619)" />
        <path
            d="M30.5849 17.4624L14.455 8.29834C13.507 7.76251 12.6689 7.82433 12.1606 8.36703L25.9204 22.1269L30.5849 17.4624Z"
            fill="url(#paint2_linear_6704_5619)" />
        <path
            d="M51.2836 9.15039C50.8714 8.77943 50.3218 8.54586 49.7173 8.54586C48.3571 8.54586 47.3129 9.66561 47.3129 11.0464C47.3129 12.4203 48.3571 13.5332 49.7173 13.5332C50.8851 13.5332 51.737 12.8531 51.7919 11.7815H49.944V11.0189H52.7949C52.7949 13.2996 51.5789 14.3782 49.7173 14.3782C47.8693 14.3782 46.4336 12.8875 46.4336 11.0464C46.4336 9.19847 47.8693 7.70776 49.7173 7.70776C50.576 7.70776 51.3523 8.03751 51.9156 8.56647L51.2836 9.15039Z"
            fill="white" />
        <path
            d="M57.8441 7.78333V8.60081H54.8695V10.6754H57.4663V11.4998H54.8695V13.4645H57.9334V14.282H53.9902V7.78333H57.8441Z"
            fill="white" />
        <path d="M63.5324 7.78333V8.61454H61.5608V14.282H60.6747V8.61454H58.7031V7.78333H63.5324Z"
            fill="white" />
        <path d="M67.7431 7.78333V14.282H66.8638V7.78333H67.7431Z" fill="white" />
        <path d="M73.7264 7.78333V8.61454H71.7548V14.282H70.8686V8.61454H68.897V7.78333H73.7264Z"
            fill="white" />
        <path
            d="M79.9165 7.70776C81.7781 7.70776 83.2207 9.19847 83.2207 11.0464C83.2207 12.8875 81.7781 14.3782 79.9165 14.3782C78.0685 14.3782 76.6328 12.8875 76.6328 11.0464C76.6328 9.19847 78.0685 7.70776 79.9165 7.70776ZM79.9165 13.5263C81.2835 13.5263 82.3346 12.4203 82.3346 11.0464C82.3346 9.66561 81.2904 8.55273 79.9165 8.55273C78.5563 8.55273 77.5121 9.66561 77.5121 11.0464C77.5121 12.4203 78.5563 13.5263 79.9165 13.5263Z"
            fill="white" />
        <path
            d="M88.407 14.282L85.4462 9.38395V14.282H84.5669V7.78333H85.4325L88.3658 12.6402V7.78333H89.2451V14.282H88.407Z"
            fill="white" />
    </g>
    <defs>
        <linearGradient id="paint0_linear_6704_5619" x1="34.9811" y1="22.128" x2="8.26806"
            y2="22.128" gradientUnits="userSpaceOnUse">
            <stop stop-color="#FEE000" />
            <stop offset="0.1941" stop-color="#FCCF0B" />
            <stop offset="0.5469" stop-color="#FAB318" />
            <stop offset="0.8279" stop-color="#F9A21B" />
            <stop offset="1" stop-color="#F99B1C" />
        </linearGradient>
        <linearGradient id="paint1_linear_6704_5619" x1="28.0487" y1="24.6612" x2="2.92399"
            y2="49.7859" gradientUnits="userSpaceOnUse">
            <stop stop-color="#EF4547" />
            <stop offset="1" stop-color="#C6186D" />
        </linearGradient>
        <linearGradient id="paint2_linear_6704_5619" x1="2.812" y1="-5.64304" x2="23.3256"
            y2="14.8706" gradientUnits="userSpaceOnUse">
            <stop stop-color="#279E6F" />
            <stop offset="0.3168" stop-color="#4DAB6D" />
            <stop offset="0.7398" stop-color="#6ABA6A" />
            <stop offset="1" stop-color="#74C169" />
        </linearGradient>
        <clipPath id="clip0_6704_5619">
            <rect width="150" height="44" fill="white" />
        </clipPath>
    </defs>
</svg>